<svg xmlns="http://www.w3.org/2000/svg" width="91" height="29" viewBox="0 0 91 29" fill="none">
<path d="M54.3666 25.9729C54.3666 26.2801 54.6234 26.5249 54.9303 26.5103L59.4814 26.2928C59.7682 26.2791 59.9936 26.0425 59.9936 25.7554V11.3737C59.9936 11.0681 59.7395 10.8239 59.4342 10.8361L54.8831 11.0182C54.5946 11.0297 54.3666 11.267 54.3666 11.5557V25.9729Z" fill="#868686"/>
<path d="M55.074 8.14494C55.6314 8.70228 56.3281 8.98095 57.1641 8.98095C58.043 8.98095 58.7503 8.70228 59.2863 8.14494C59.8436 7.56616 60.1223 6.84804 60.1223 5.99059C60.1223 5.15458 59.8436 4.44719 59.2863 3.86841C58.7503 3.28963 58.043 3.00024 57.1641 3.00024C56.3281 3.00024 55.6314 3.28963 55.074 3.86841C54.5167 4.44719 54.238 5.15458 54.238 5.99059C54.238 6.84804 54.5167 7.56616 55.074 8.14494Z" fill="#868686"/>
<path fill-rule="evenodd" clip-rule="evenodd" d="M40.8269 17.3089V25.1259C40.8269 25.3848 40.6424 25.6071 40.3878 25.6547L35.7081 26.5295C35.3771 26.5913 35.0713 26.3374 35.0713 26.0007V4.27776C35.0713 3.98065 35.3121 3.73979 35.6093 3.73979H44.7819C46.3253 3.73979 47.6758 4.02918 48.8333 4.60796C50.0123 5.18674 50.9341 5.97988 51.5986 6.98738C52.2631 7.99488 52.5954 9.17387 52.5954 10.5244C52.5954 11.8748 52.2524 13.0645 51.5665 14.0935C50.9019 15.101 49.9695 15.8941 48.769 16.4729C48.2497 16.714 47.6923 16.903 47.0968 17.0398L53.2009 25.3482C53.4981 25.7527 53.1284 26.3078 52.6406 26.1895L47.595 24.9661C47.4806 24.9383 47.3783 24.8738 47.3041 24.7823L41.2384 17.3089H40.8269ZM40.8269 13.1932H43.978C44.9212 13.1932 45.6393 12.9681 46.1324 12.5179C46.6468 12.0463 46.9041 11.414 46.9041 10.6208C46.9041 9.84911 46.6468 9.22746 46.1324 8.75587C45.6393 8.26283 44.9212 8.01632 43.978 8.01632H40.8269V13.1932Z" fill="#868686"/>
<path d="M67.6268 26.9874C66.6621 26.9874 65.7082 26.8587 64.765 26.6015C63.8433 26.3443 62.9751 26.0013 62.1605 25.5726C61.5376 25.219 60.9873 24.8257 60.5098 24.3928C60.2942 24.1973 60.2968 23.8638 60.5004 23.6559L62.8013 21.3066C63.0137 21.0897 63.3619 21.0938 63.5935 21.2901C64.0155 21.6478 64.4918 21.9392 65.0223 22.1642C65.7511 22.4643 66.5228 22.6144 67.3374 22.6144C67.809 22.6144 68.1627 22.5501 68.3985 22.4215C68.6557 22.2928 68.7843 22.1106 68.7843 21.8748C68.7843 21.5318 68.6021 21.2746 68.2377 21.1031C67.8947 20.9102 67.4339 20.7494 66.8551 20.6208C66.2977 20.4708 65.7082 20.2993 65.0866 20.1063C64.4649 19.892 63.8647 19.6133 63.2859 19.2703C62.7072 18.9273 62.2356 18.445 61.8712 17.8234C61.5282 17.2017 61.3567 16.4086 61.3567 15.444C61.3567 14.4365 61.6246 13.5576 62.1605 12.8073C62.7179 12.0356 63.4896 11.4354 64.4757 11.0067C65.4617 10.5565 66.6193 10.3314 67.9483 10.3314C69.2988 10.3314 70.585 10.5672 71.8068 11.0388C72.846 11.4217 73.8898 12.1634 74.6403 12.9437C74.8503 13.162 74.809 13.5094 74.5689 13.6941L71.9076 15.7413C71.6838 15.9134 71.3689 15.8785 71.1591 15.6897C70.7936 15.3608 70.4482 15.1895 69.974 15.026C69.3524 14.7902 68.7843 14.6723 68.2699 14.6723C67.7768 14.6723 67.4231 14.7473 67.2088 14.8973C66.9944 15.026 66.8872 15.2082 66.8872 15.444C66.8872 15.7226 67.0587 15.9477 67.4017 16.1192C67.7661 16.2907 68.227 16.4515 68.7843 16.6015C69.3631 16.7301 69.9526 16.9016 70.5528 17.116C71.1745 17.3304 71.764 17.6305 72.3213 18.0163C72.9001 18.3807 73.361 18.8738 73.7039 19.4954C74.0684 20.1171 74.2506 20.9209 74.2506 21.907C74.2506 23.4718 73.6504 24.7151 72.4499 25.6369C71.2495 26.5372 69.6418 26.9874 67.6268 26.9874Z" fill="#868686"/>
<path fill-rule="evenodd" clip-rule="evenodd" d="M78.4532 25.862C79.8037 26.5479 81.3578 26.8909 83.1156 26.8909C84.509 26.8909 85.7523 26.6658 86.8455 26.2157C87.7992 25.8305 88.6273 25.2885 89.33 24.5895C89.531 24.3895 89.5191 24.0661 89.3186 23.8656L87.1545 21.7015C86.9349 21.4819 86.5774 21.4962 86.3473 21.7048C85.9792 22.0386 85.5772 22.2989 85.1413 22.4858C84.5626 22.743 83.8873 22.8716 83.1156 22.8716C82.301 22.8716 81.6151 22.7108 81.0577 22.3893C80.5004 22.0678 80.0717 21.5962 79.7716 20.9745C79.6981 20.8171 79.6336 20.6519 79.5781 20.4791L90.1895 20.4298C90.4355 20.4287 90.6515 20.2613 90.6998 20.0202C90.7526 19.7569 90.7862 19.5177 90.8005 19.3025C90.8434 18.9595 90.8648 18.6272 90.8648 18.3057C90.8648 16.7837 90.5111 15.4332 89.8037 14.2543C89.1178 13.0538 88.1531 12.1214 86.9098 11.4568C85.688 10.7709 84.2839 10.4279 82.6976 10.4279C81.0685 10.4279 79.6001 10.7923 78.2925 11.5211C77.0063 12.2285 75.9881 13.2039 75.2378 14.4472C74.4875 15.669 74.1124 17.0731 74.1124 18.6594C74.1124 20.2671 74.4983 21.6926 75.27 22.9359C76.0417 24.1792 77.1028 25.1546 78.4532 25.862ZM79.5662 16.8676C79.6163 16.7075 79.674 16.5545 79.7394 16.4086C80.0181 15.7869 80.4146 15.3046 80.9291 14.9617C81.4436 14.6187 82.0545 14.4472 82.7619 14.4472C83.4479 14.4472 84.0159 14.5972 84.4661 14.8973C84.9163 15.1974 85.2592 15.6369 85.495 16.2157C85.5725 16.3987 85.6384 16.5991 85.6927 16.8168L79.5662 16.8676Z" fill="#868686"/>
<path d="M7.59228 1.82166C7.59228 1.50258 7.82988 1.23343 8.1465 1.19385L11.9426 0.719334C12.3203 0.672131 12.6538 0.966577 12.6538 1.34714V13.8329C12.6538 14.2135 12.3203 14.5079 11.9426 14.4607L8.1465 13.9862C7.82988 13.9466 7.59228 13.6775 7.59228 13.3584V1.82166Z" fill="#868686"/>
<path d="M0 3.40338C0 3.0843 0.237598 2.81516 0.554215 2.77558L4.35036 2.30106C4.72798 2.25386 5.06152 2.5483 5.06152 2.92886V12.8839C5.06152 13.2645 4.72798 13.5589 4.35036 13.5117L0.554214 13.0372C0.237598 12.9976 0 12.7285 0 12.4094V3.40338Z" fill="#868686"/>
<path d="M19.7669 1.77601C20.0485 1.84642 20.2461 2.09949 20.2461 2.38981V7.6642C20.2461 7.98328 20.0085 8.25242 19.6919 8.292L15.8957 8.76652C15.5181 8.81372 15.1846 8.51928 15.1846 8.13871V1.44077C15.1846 1.02916 15.5714 0.727144 15.9707 0.826974L19.7669 1.77601Z" fill="#868686"/>
<path d="M27.2057 3.97153C27.2057 3.68121 27.0081 3.42815 26.7264 3.35774L22.9303 2.4087C22.531 2.30887 22.1442 2.61089 22.1442 3.0225V7.82237C22.1442 8.20293 22.4777 8.49738 22.8553 8.45017L26.6515 7.97565C26.9681 7.93608 27.2057 7.66693 27.2057 7.34785V3.97153Z" fill="#868686"/>
<path d="M27.2057 10.4371L14.8682 10.7535C15.0467 13.0741 16.9818 14.866 19.3092 14.866H22.1442V17.5586L0 15.4987V28.6888L27.2057 26.7908V10.4371Z" fill="#868686"/>
</svg>