<svg xmlns="http://www.w3.org/2000/svg" width="119" height="33" viewBox="0 0 119 33" fill="none">
<path d="M67.0109 25.0488V5.90039H70.4804V25.0488H67.0109Z" fill="#868686"/>
<path d="M37.6421 6.43009L44.9783 25.0488H47.8387L55.2544 6.43009H51.4141L46.4518 19.5023L41.5353 6.43009H37.6421Z" fill="#868686"/>
<path fill-rule="evenodd" clip-rule="evenodd" d="M55.7725 24.4397C56.8142 25.0223 57.9796 25.3137 59.2685 25.3137C60.5574 25.3137 61.7139 25.0223 62.738 24.4397C63.7797 23.8394 64.6007 23.036 65.2011 22.0296C65.8014 21.0055 66.1015 19.8667 66.1015 18.613C66.1015 17.3594 65.8014 16.2382 65.2011 15.2495C64.6007 14.2431 63.7797 13.4485 62.738 12.8659C61.7139 12.2655 60.5486 11.9654 59.242 11.9654C57.9707 11.9654 56.8142 12.2655 55.7725 12.8659C54.7308 13.4485 53.9098 14.2431 53.3094 15.2495C52.7091 16.2382 52.409 17.3594 52.409 18.613C52.409 19.8667 52.7091 21.0055 53.3094 22.0296C53.9274 23.036 54.7484 23.8394 55.7725 24.4397ZM60.9635 21.6588C60.4691 21.9413 59.8953 22.0825 59.242 22.0825C58.6064 22.0825 58.0414 21.9413 57.547 21.6588C57.0526 21.3586 56.6642 20.9525 56.3817 20.4405C56.0992 19.9108 55.9579 19.3105 55.9579 18.6395C55.9579 17.9686 56.0992 17.3771 56.3817 16.8651C56.6642 16.353 57.0526 15.9557 57.547 15.6732C58.0414 15.3731 58.6064 15.223 59.242 15.223C59.8953 15.223 60.4691 15.3731 60.9635 15.6732C61.4579 15.9557 61.8463 16.353 62.1288 16.8651C62.4113 17.3771 62.5526 17.9686 62.5526 18.6395C62.5526 19.3105 62.4113 19.9108 62.1288 20.4405C61.864 20.9525 61.4756 21.3586 60.9635 21.6588Z" fill="#868686"/>
<path d="M74.6669 24.5986C75.5497 25.0753 76.5561 25.3137 77.6861 25.3137C78.8161 25.3137 79.8137 25.0841 80.6789 24.6251C81.5617 24.1483 82.2415 23.4862 82.7182 22.6387C83.2126 21.7912 83.4598 20.8024 83.4598 19.6724V12.2567H79.9903V19.593C79.9903 20.3875 79.7872 21.0055 79.3811 21.4469C78.975 21.8883 78.41 22.109 77.6861 22.109C77.2094 22.109 76.7945 22.0119 76.4413 21.8177C76.0882 21.6235 75.8234 21.341 75.6468 20.9702C75.4702 20.5817 75.382 20.1227 75.382 19.593V12.2567H71.886V19.6724C71.886 20.7848 72.1332 21.7647 72.6275 22.6122C73.1219 23.4597 73.8017 24.1219 74.6669 24.5986Z" fill="#868686"/>
<path d="M84.8984 25.0488V12.2567H88.3679V13.3666C88.6783 13.0636 89.0314 12.8084 89.4273 12.601C90.1689 12.1949 91.0076 11.9919 91.9434 11.9919C92.8262 11.9919 93.6296 12.1949 94.3535 12.601C94.9601 12.9265 95.4614 13.3699 95.8573 13.931C96.2852 13.3849 96.808 12.9504 97.4257 12.6275C98.2026 12.2037 99.0677 11.9919 100.021 11.9919C100.975 11.9919 101.831 12.1949 102.59 12.601C103.349 12.9895 103.95 13.5545 104.391 14.296C104.833 15.0376 105.053 15.9204 105.053 16.9445V25.0488H101.584V17.5007C101.584 16.7591 101.345 16.1853 100.869 15.7792C100.41 15.3554 99.8358 15.1435 99.1472 15.1435C98.7058 15.1435 98.2909 15.2407 97.9024 15.4349C97.5316 15.6114 97.2403 15.8763 97.0284 16.2294C96.8165 16.5826 96.7106 17.0063 96.7106 17.5007V25.0488H93.2411V17.5007C93.2411 16.7591 93.0027 16.1853 92.526 15.7792C92.067 15.3554 91.4931 15.1435 90.8045 15.1435C90.3454 15.1435 89.9305 15.2407 89.5597 15.4349C89.1889 15.6114 88.8976 15.8763 88.6857 16.2294C88.4739 16.5826 88.3679 17.0063 88.3679 17.5007V25.0488H84.8984Z" fill="#868686"/>
<path fill-rule="evenodd" clip-rule="evenodd" d="M109.084 24.4662C110.126 25.0312 111.317 25.3137 112.659 25.3137C113.701 25.3137 114.663 25.1283 115.546 24.7575C116.447 24.3867 117.206 23.8394 117.824 23.1154L115.785 21.0761C115.396 21.5175 114.937 21.853 114.407 22.0825C113.878 22.2944 113.286 22.4004 112.633 22.4004C111.909 22.4004 111.273 22.2503 110.726 21.9501C110.179 21.6323 109.755 21.1909 109.455 20.6259C109.342 20.393 109.251 20.1447 109.184 19.8809L118.539 19.8578C118.61 19.5577 118.654 19.2928 118.671 19.0633C118.707 18.8161 118.724 18.5777 118.724 18.3482C118.724 17.1299 118.451 16.044 117.903 15.0906C117.374 14.1195 116.632 13.3602 115.679 12.8129C114.743 12.2479 113.657 11.9654 112.421 11.9654C111.167 11.9654 110.029 12.2655 109.004 12.8659C107.98 13.4485 107.168 14.2431 106.568 15.2495C105.985 16.2382 105.694 17.3683 105.694 18.6395C105.694 19.9284 105.994 21.0761 106.594 22.0825C107.212 23.089 108.042 23.8835 109.084 24.4662ZM109.187 17.2847C109.249 17.0506 109.329 16.8312 109.428 16.6267C109.711 16.0617 110.108 15.6291 110.62 15.3289C111.132 15.0111 111.732 14.8522 112.421 14.8522C113.074 14.8522 113.622 14.9935 114.063 15.276C114.522 15.5408 114.866 15.9293 115.096 16.4413C115.215 16.6878 115.309 16.963 115.379 17.2668L109.187 17.2847Z" fill="#868686"/>
<path fill-rule="evenodd" clip-rule="evenodd" d="M16.3194 32.7404C25.2194 32.7404 32.4342 25.5255 32.4342 16.6256C32.4342 7.72559 25.2194 0.510742 16.3194 0.510742C7.41944 0.510742 0.20459 7.72559 0.20459 16.6256C0.20459 25.5255 7.41944 32.7404 16.3194 32.7404ZM22.9932 6.76208C23.1845 6.92383 23.2946 7.16159 23.2946 7.41207L23.2942 10.6497L23.2946 10.8627L23.2942 10.8882V21.7259C23.2942 23.6082 21.7685 25.1339 19.8863 25.1339C18.0041 25.1339 16.4783 23.6082 16.4783 21.7259C16.4783 19.8437 18.0041 18.3178 19.8863 18.3178C20.5071 18.3178 21.0889 18.4838 21.5903 18.7738V11.8684L13.07 13.2888V23.4299C13.07 25.3121 11.5442 26.8379 9.66201 26.8379C7.7798 26.8379 6.25404 25.3121 6.25404 23.4299C6.25404 21.5477 7.7798 20.0218 9.66201 20.0218C10.2828 20.0218 10.865 20.1878 11.366 20.4778L11.3664 12.5667L11.366 12.3537L11.3664 12.3282V9.11606C11.3664 8.6997 11.6674 8.34419 12.0785 8.27567L22.3024 6.57169C22.5495 6.5305 22.8023 6.60014 22.9932 6.76208Z" fill="#868686"/>
</svg>