<svg xmlns="http://www.w3.org/2000/svg" width="88" height="29" viewBox="0 0 88 29" fill="none">
<path d="M21.8944 23.7592C22.0078 26.0382 19.8634 27.9971 17.1046 28.1345C14.3458 28.2718 12.0174 26.5357 11.9039 24.2567C11.7904 21.9777 13.9349 20.0189 16.6936 19.8815C19.4524 19.7441 21.7809 21.4802 21.8944 23.7592Z" fill="#868686"/>
<path d="M12.0866 19.1778C12.148 20.4115 11.5172 21.4455 10.6775 21.4873C9.83792 21.5292 9.10746 20.5629 9.04602 19.3292C8.98458 18.0954 9.61543 17.0614 10.4551 17.0196C11.2947 16.9778 12.0252 17.944 12.0866 19.1778Z" fill="#868686"/>
<path d="M15.8723 16.5012C15.9337 17.7349 15.3029 18.7689 14.4633 18.8107C13.6236 18.8526 12.8932 17.8863 12.8317 16.6526C12.7703 15.4188 13.4012 14.3848 14.2408 14.343C15.0804 14.3012 15.8109 15.2674 15.8723 16.5012Z" fill="#868686"/>
<path d="M19.7824 16.3063C19.8438 17.5401 19.213 18.5741 18.3733 18.6159C17.5337 18.6577 16.8032 17.6915 16.7418 16.4577C16.6804 15.224 17.3112 14.19 18.1508 14.1482C18.9905 14.1063 19.7209 15.0726 19.7824 16.3063Z" fill="#868686"/>
<path d="M23.8155 18.5938C23.8769 19.8276 23.2461 20.8616 22.4065 20.9034C21.5668 20.9452 20.8364 19.979 20.7749 18.7452C20.7135 17.5115 21.3443 16.4774 22.184 16.4356C23.0236 16.3938 23.7541 17.3601 23.8155 18.5938Z" fill="#868686"/>
<path d="M8.86155 13.2208C7.56361 15.0975 4.66975 15.3452 2.39794 13.774C0.126129 12.2028 -0.663352 9.4077 0.634586 7.53098C1.93252 5.65427 4.82638 5.40659 7.09819 6.97778C9.37 8.54897 10.1595 11.344 8.86155 13.2208Z" fill="#868686"/>
<path d="M3.87278 3.61382C3.17014 4.62978 2.04003 5.06574 1.34861 4.58755C0.657187 4.10936 0.666284 2.89811 1.36893 1.88215C2.07157 0.866181 3.20168 0.430226 3.8931 0.908414C4.58453 1.3866 4.57543 2.59785 3.87278 3.61382Z" fill="#868686"/>
<path d="M8.50499 3.79619C7.80234 4.81215 6.67223 5.24811 5.98081 4.76992C5.28939 4.29173 5.29849 3.08048 6.00113 2.06451C6.70377 1.04855 7.83389 0.612594 8.52531 1.09078C9.21673 1.56897 9.20763 2.78022 8.50499 3.79619Z" fill="#868686"/>
<path d="M11.7251 6.02286C11.0225 7.03882 9.89238 7.47478 9.20096 6.99659C8.50953 6.5184 8.51863 5.30715 9.22128 4.29119C9.92392 3.27522 11.054 2.83926 11.7455 3.31745C12.4369 3.79564 12.4278 5.00689 11.7251 6.02286Z" fill="#868686"/>
<path d="M13.5307 10.2932C12.8281 11.3092 11.698 11.7451 11.0065 11.2669C10.3151 10.7887 10.3242 9.5775 11.0269 8.56153C11.7295 7.54557 12.8596 7.10961 13.551 7.5878C14.2424 8.06599 14.2334 9.27724 13.5307 10.2932Z" fill="#868686"/>
<path d="M31.3404 22.6466C30.252 22.1101 29.3627 21.4126 28.673 20.554C27.983 19.6803 27.4696 18.745 27.1323 17.7485C26.8103 16.7368 26.6493 15.7556 26.6493 14.8052V14.2991C26.6493 13.2568 26.8178 12.2295 27.1551 11.2177C27.4925 10.1906 28.0062 9.26302 28.6959 8.43518C29.4013 7.60733 30.2827 6.94817 31.3404 6.45768C32.4135 5.95165 33.6783 5.69873 35.1348 5.69873C36.6527 5.69873 37.9938 5.98235 39.159 6.5496C40.3242 7.11684 41.2517 7.90631 41.9417 8.91818C42.6467 9.91469 43.0608 11.0874 43.1833 12.4366H39.3889C39.2818 11.7619 39.0362 11.1872 38.6532 10.7118C38.2698 10.2365 37.7718 9.86864 37.1585 9.60805C36.5606 9.34745 35.8858 9.21715 35.1348 9.21715C34.3837 9.21715 33.7168 9.34745 33.1342 9.60805C32.5516 9.86864 32.0612 10.2365 31.6624 10.7118C31.5351 10.8695 31.4172 11.0372 31.3086 11.2151C31.2786 11.2641 31.2494 11.3139 31.221 11.3644L31.1813 11.4358C31.1521 11.4899 31.1236 11.5447 31.0959 11.6003C31.0521 11.6881 31.0102 11.778 30.9705 11.8701C30.9491 11.9197 30.9285 11.9697 30.9083 12.0204C30.8918 12.0611 30.8757 12.1022 30.86 12.1438C30.8271 12.232 30.7956 12.3218 30.7657 12.4136C30.5661 13.0574 30.4665 13.778 30.4665 14.5751C30.4665 15.3571 30.5661 16.0775 30.7657 16.7368C30.7892 16.8072 30.8136 16.8767 30.839 16.9452L30.8784 17.0468C31.0832 17.5643 31.352 18.0282 31.6852 18.4384C32.0993 18.9137 32.6052 19.2815 33.2031 19.5421C33.8011 19.7876 34.4833 19.9102 35.2497 19.9102C36.4149 19.9102 37.3959 19.6266 38.1934 19.0593C39.0059 18.4921 39.4964 17.7103 39.6649 16.7138H43.4364C43.2982 17.9402 42.8845 19.067 42.1944 20.0942C41.5201 21.1059 40.5923 21.9184 39.4121 22.5317C38.2469 23.1296 36.8593 23.4286 35.2497 23.4286C33.7322 23.4286 32.4288 23.1678 31.3404 22.6466Z" fill="#868686"/>
<path d="M44.7424 22.9917V6.20457H48.445V22.9917H44.7424Z" fill="#868686"/>
<path d="M51.7545 21.9798C52.5363 22.9149 53.6554 23.3826 55.1119 23.3826H55.2729C56.2236 23.3826 57.2225 23.4056 57.8665 22.9917C58.3098 22.7067 58.9224 22.3052 59.3661 21.8074V22.9917H62.2865V10.3898H58.6075V17.7945C58.6075 18.4998 58.4004 19.0593 57.9863 19.4733C57.5726 19.8872 57.0361 20.0942 56.3767 20.0942C55.7327 20.0942 55.2194 19.8948 54.836 19.4963C54.4529 19.0977 54.2612 18.5612 54.2612 17.8865V10.3898H50.5818V17.7026C50.5818 19.6035 50.9727 21.0293 51.7545 21.9798Z" fill="#868686"/>
<path fill-rule="evenodd" clip-rule="evenodd" d="M70.1291 23.4286C69.056 23.4286 68.1054 23.2446 67.2776 22.8767C66.4651 22.5087 65.7829 22.0182 65.231 21.4049C64.6944 20.7764 64.2803 20.0789 63.989 19.3123C63.7131 18.5305 63.5753 17.7331 63.5753 16.9206V16.4609C63.5753 15.6177 63.7131 14.8127 63.989 14.0462C64.2803 13.2644 64.6944 12.5669 65.231 11.9536C65.7675 11.3403 66.4344 10.8575 67.2315 10.5048C68.044 10.1369 68.9639 9.95289 69.991 9.95289C71.34 9.95289 72.4745 10.2595 73.3944 10.8728C74.3297 11.4708 75.0426 12.2602 75.5331 13.2414C76.0236 14.2072 76.2689 15.265 76.2689 16.4148V17.6566H67.0645C67.1173 18.0301 67.2038 18.3751 67.3236 18.6915C67.5382 19.2434 67.8755 19.6726 68.3353 19.9791C68.7955 20.2857 69.393 20.4391 70.1291 20.4391C70.8035 20.4391 71.3554 20.3088 71.7848 20.0482C71.9863 19.9257 72.1574 19.7898 72.2981 19.6404C72.4573 19.4716 72.5775 19.2857 72.6587 19.0824H76.039C75.8551 19.9256 75.4949 20.6766 74.958 21.336C74.4215 21.9952 73.7472 22.5087 72.9347 22.8767C72.1222 23.2446 71.1869 23.4286 70.1291 23.4286ZM67.1109 15.4662C67.1046 15.4984 67.0986 15.531 67.093 15.5639H72.7748C72.7216 15.2105 72.6366 14.8887 72.5205 14.5981C72.306 14.0616 71.984 13.6553 71.5549 13.3794C71.1408 13.0881 70.6196 12.9424 69.991 12.9424C69.8734 12.9424 69.7588 12.9473 69.6476 12.957C69.5376 12.9668 69.4308 12.9812 69.3271 13.0005C68.9639 13.0679 68.6412 13.1942 68.3585 13.3794C67.9137 13.6707 67.5763 14.1 67.3464 14.6672C67.3225 14.7249 67.2996 14.784 67.2779 14.8445C67.2555 14.907 67.2349 14.971 67.2154 15.0366C67.175 15.1732 67.1401 15.3164 67.1109 15.4662Z" fill="#868686"/>
<path d="M78.132 22.2788C79.144 23.0147 80.5466 23.3826 82.3405 23.3826C83.4749 23.3826 84.4638 23.2216 85.307 22.8996C86.1502 22.5624 86.8017 22.0871 87.2614 21.474C87.7216 20.8453 87.9515 20.1094 87.9515 19.2662C87.9515 18.1012 87.522 17.1738 86.6635 16.4837C85.805 15.7938 84.6016 15.3647 83.0533 15.1961L82.0645 15.104C81.4052 15.0274 80.93 14.8971 80.6387 14.7131C80.5204 14.6384 80.426 14.5498 80.3557 14.4472C80.2531 14.2973 80.2018 14.1176 80.2018 13.9083C80.2018 13.5404 80.3703 13.2491 80.7076 13.0344C81.045 12.8198 81.4973 12.7125 82.0645 12.7125C82.7849 12.7125 83.3293 12.8582 83.697 13.1493C84.065 13.4253 84.2796 13.7703 84.341 14.1842H87.6063C87.5606 12.8352 87.039 11.8079 86.0427 11.1027C85.0464 10.3822 83.7355 10.022 82.1106 10.022C81.0985 10.022 80.1943 10.1753 79.3968 10.4819C78.615 10.7884 78.0017 11.2407 77.5572 11.8386C77.1128 12.4366 76.8904 13.18 76.8904 14.0693C76.8904 15.1423 77.2659 16.0239 78.017 16.7138C78.7838 17.4036 79.9258 17.8252 81.4437 17.9786L82.4326 18.0705C83.2604 18.1624 83.8351 18.3234 84.1571 18.5535C84.4791 18.768 84.6401 19.0593 84.6401 19.4272C84.6401 19.8411 84.4252 20.1631 83.9961 20.393C83.582 20.6077 83.0533 20.715 82.4093 20.715C81.5662 20.715 80.93 20.5617 80.5006 20.255C80.0868 19.9332 79.8491 19.5728 79.788 19.1743H76.5223C76.5838 20.5081 77.1203 21.5429 78.132 22.2788Z" fill="#868686"/>
</svg>