<svg xmlns="http://www.w3.org/2000/svg" width="113" height="24" viewBox="0 0 113 24" fill="none">
<path d="M49.6892 22.424C47.9772 22.424 46.5074 22.1214 45.2797 21.5162C44.0519 20.911 43.049 20.1242 42.2708 19.1558C41.51 18.1875 40.948 17.1327 40.5849 15.9914C40.2217 14.8501 40.0402 13.752 40.0402 12.6972V12.1266C40.0402 10.9507 40.2217 9.79216 40.5849 8.65088C40.9653 7.5096 41.5446 6.47207 42.3227 5.5383C43.1009 4.60453 44.0865 3.86097 45.2797 3.30762C46.4901 2.73698 47.9167 2.45166 49.5595 2.45166C51.2714 2.45166 52.7585 2.76292 54.0208 3.38543C55.3004 3.99066 56.3207 4.85526 57.0815 5.97925C57.8424 7.08594 58.3006 8.38285 58.4563 9.86997H54.7471C54.6088 9.00537 54.2975 8.2791 53.8133 7.69117C53.3464 7.08594 52.7499 6.63635 52.0236 6.34238C51.2973 6.03113 50.4759 5.8755 49.5595 5.8755C48.6257 5.8755 47.7957 6.03977 47.0694 6.36832C46.3431 6.67958 45.7379 7.12917 45.2537 7.71711C44.7696 8.30504 44.3978 8.99672 44.1384 9.79216C43.8963 10.5876 43.7753 11.4695 43.7753 12.4378C43.7753 13.3716 43.8963 14.2362 44.1384 15.0317C44.3978 15.8271 44.7782 16.5274 45.2797 17.1327C45.7811 17.7206 46.395 18.1788 47.1213 18.5074C47.8648 18.8359 48.7208 19.0002 49.6892 19.0002C51.1071 19.0002 52.3003 18.6544 53.2686 17.9627C54.2543 17.2537 54.8508 16.2681 55.0584 15.0057H58.7675C58.5946 16.3545 58.1363 17.5909 57.3928 18.7149C56.6492 19.8389 55.629 20.7381 54.3321 21.4124C53.0352 22.0868 51.4875 22.424 49.6892 22.424Z" fill="#868686"/>
<path d="M60.475 21.9312V2.99636H64.0804V21.9312H60.475ZM58.7112 5.69393V2.99636H64.0804V5.69393H58.7112Z" fill="#868686"/>
<path d="M73.6694 22.424C72.4244 22.424 71.3263 22.2252 70.3752 21.8275C69.4242 21.4297 68.6201 20.8937 67.963 20.2193C67.3059 19.5276 66.8044 18.7495 66.4586 17.8849C66.13 17.0203 65.9657 16.1211 65.9657 15.1873V14.6426C65.9657 13.6742 66.1387 12.7578 66.4845 11.8931C66.8476 11.0113 67.3578 10.2331 68.0149 9.55871C68.6893 8.86703 69.502 8.33098 70.4531 7.95055C71.4041 7.55283 72.4762 7.35397 73.6694 7.35397C74.8625 7.35397 75.9346 7.55283 76.8857 7.95055C77.8368 8.33098 78.6409 8.86703 79.298 9.55871C79.9724 10.2331 80.4825 11.0113 80.8283 11.8931C81.1742 12.7578 81.3471 13.6742 81.3471 14.6426V15.1873C81.3471 16.1211 81.1742 17.0203 80.8283 17.8849C80.4998 18.7495 80.0069 19.5276 79.3498 20.2193C78.6927 20.8937 77.8887 21.4297 76.9376 21.8275C75.9865 22.2252 74.8971 22.424 73.6694 22.424ZM73.6694 19.3374C74.5513 19.3374 75.2948 19.1472 75.9001 18.7668C76.5053 18.369 76.9635 17.8416 77.2748 17.1845C77.586 16.5101 77.7417 15.7493 77.7417 14.902C77.7417 14.0374 77.5774 13.2765 77.2488 12.6194C76.9376 11.945 76.4707 11.4176 75.8482 11.0372C75.243 10.6395 74.5167 10.4406 73.6694 10.4406C72.8221 10.4406 72.0872 10.6395 71.4646 11.0372C70.8594 11.4176 70.3925 11.945 70.064 12.6194C69.7354 13.2765 69.5712 14.0374 69.5712 14.902C69.5712 15.7493 69.7268 16.5101 70.038 17.1845C70.3666 17.8416 70.8335 18.369 71.4387 18.7668C72.0439 19.1472 72.7875 19.3374 73.6694 19.3374Z" fill="#868686"/>
<path d="M88.0057 22.3722C86.3802 22.3722 85.1179 21.8361 84.2187 20.764C83.3368 19.6919 82.8959 18.101 82.8959 15.9914V7.82086H86.5013V16.3026C86.5013 17.1672 86.7434 17.8589 87.2275 18.3777C87.7117 18.8792 88.3688 19.1299 89.1988 19.1299C90.0289 19.1299 90.7033 18.8619 91.222 18.3258C91.7581 17.7898 92.0261 17.0635 92.0261 16.147V7.82086H95.6315V21.9312H92.7783V15.9395H93.0636C93.0636 17.3575 92.8821 18.542 92.5189 19.493C92.1558 20.4441 91.6111 21.1617 90.8848 21.6459C90.1585 22.1301 89.2507 22.3722 88.1613 22.3722H88.0057Z" fill="#868686"/>
<path d="M104.312 22.3981C103.327 22.3981 102.419 22.2165 101.589 21.8534C100.759 21.4903 100.041 20.9801 99.4359 20.323C98.8307 19.6659 98.3638 18.9051 98.0352 18.0405C97.7067 17.1586 97.5424 16.2075 97.5424 15.1873V14.6426C97.5424 13.6397 97.698 12.6972 98.0093 11.8153C98.3378 10.9334 98.7874 10.1639 99.3581 9.50684C99.946 8.84974 100.646 8.33962 101.459 7.97649C102.289 7.59606 103.206 7.40585 104.209 7.40585C105.315 7.40585 106.284 7.64794 107.114 8.13212C107.961 8.599 108.635 9.30798 109.137 10.259C109.638 11.2101 109.915 12.4033 109.967 13.8385L108.903 12.5935V2.99636H112.509V21.9312H109.656V15.9395H110.278C110.226 17.3747 109.932 18.5765 109.396 19.5449C108.86 20.496 108.151 21.2136 107.269 21.6978C106.405 22.1647 105.419 22.3981 104.312 22.3981ZM105.116 19.3633C105.825 19.3633 106.474 19.2077 107.062 18.8965C107.65 18.5679 108.117 18.101 108.462 17.4958C108.826 16.8733 109.007 16.147 109.007 15.317V14.2795C109.007 13.4494 108.826 12.7578 108.462 12.2044C108.099 11.6338 107.624 11.2015 107.036 10.9075C106.448 10.5962 105.808 10.4406 105.116 10.4406C104.338 10.4406 103.647 10.6308 103.041 11.0113C102.453 11.3744 101.986 11.8931 101.641 12.5675C101.312 13.2419 101.148 14.0287 101.148 14.9279C101.148 15.8271 101.321 16.6139 101.667 17.2883C102.012 17.9454 102.479 18.4555 103.067 18.8186C103.672 19.1818 104.355 19.3633 105.116 19.3633Z" fill="#868686"/>
<path d="M26.4566 23.9223C25.2109 23.9223 24.4433 23.3472 23.1894 22.6699C21.9354 21.9925 18.3088 19.2655 18.3088 15.8708C18.3088 13.5679 17.7152 11.7054 16.7042 10.221C15.7008 8.74802 14.3415 7.72754 12.9273 7.00715C12.2458 6.66007 11.5367 6.37626 10.8305 6.14168C10.4189 6.00502 10.18 5.56302 10.3586 5.16782C11.4906 2.66164 14.0118 0.917969 16.9405 0.917969C20.9271 0.917969 24.1591 4.14977 24.1591 8.13659C24.1591 8.98952 24.0112 9.808 23.7396 10.5675C24.8902 9.79209 26.2765 9.3396 27.7683 9.3396C31.755 9.3396 34.987 12.5714 34.987 16.5582C34.987 21.3577 30.7695 23.9223 26.4566 23.9223Z" fill="#868686"/>
<path d="M0.0970459 15.9567C0.0970459 19.7618 2.60566 22.9322 5.92901 23.6327C6.44196 23.8201 6.99573 23.9223 7.57346 23.9223H18.789C19.1651 23.9223 19.3289 23.4193 19.0417 23.1763C17.0817 21.5178 15.625 19.1805 15.625 15.8708C15.625 14.0522 15.1644 12.7277 14.486 11.732C13.7999 10.7248 12.8348 9.97199 11.7091 9.39838C10.5729 8.81972 9.33941 8.4511 8.16148 8.18976C7.88404 8.15475 7.60172 8.13659 7.31567 8.13659C3.32885 8.13659 0.0970459 11.6378 0.0970459 15.9567Z" fill="#868686"/>
</svg>