<svg xmlns="http://www.w3.org/2000/svg" width="105" height="28" viewBox="0 0 105 28" fill="none">
<path d="M55.5951 13.9763C54.9468 14.6066 54.6226 15.525 54.6226 16.7316V24.2684H50.3005V9.46503H53.7312V14.3501C53.8955 12.9557 54.3097 11.8316 54.9738 10.9778C55.8743 9.84322 57.1709 9.27593 58.8637 9.27593H59.431V13.0038H58.3505C57.1619 13.0038 56.2434 13.3279 55.5951 13.9763Z" fill="#868686"/>
<path fill-rule="evenodd" clip-rule="evenodd" d="M68.6964 22.4585C68.882 22.1437 69.0351 21.7964 69.1557 21.4165V24.2684H72.5864V15.1919C72.5864 13.8232 72.3162 12.7066 71.776 11.8422C71.2357 10.9598 70.4433 10.3024 69.3988 9.87023C68.3723 9.43801 67.1026 9.22191 65.5899 9.22191C65.0676 9.22191 64.5093 9.23091 63.915 9.24892C63.3208 9.26693 62.7445 9.29394 62.1862 9.32996C61.6279 9.36598 61.1417 9.402 60.7275 9.43801V13.0848C61.2857 13.0488 61.9071 13.0128 62.5914 12.9768C63.2757 12.9408 63.9421 12.9137 64.5904 12.8957C65.2387 12.8777 65.761 12.8687 66.1572 12.8687C66.9496 12.8687 67.5258 13.0578 67.886 13.436C68.2462 13.8142 68.4263 14.3815 68.4263 15.1378V15.1919H65.752C64.4373 15.1919 63.2757 15.363 62.2672 15.7051C61.2587 16.0293 60.4753 16.5425 59.9171 17.2449C59.3588 17.9292 59.0796 18.8117 59.0796 19.8922C59.0796 20.8827 59.3048 21.7381 59.755 22.4585C60.2052 23.1608 60.8265 23.7011 61.6189 24.0793C62.4293 24.4575 63.3658 24.6466 64.4283 24.6466C65.4548 24.6466 66.3192 24.4575 67.0216 24.0793C67.742 23.7011 68.3002 23.1608 68.6964 22.4585ZM67.9941 20.5135C68.2462 20.0993 68.3903 19.523 68.4263 18.7847V17.5961H65.7249C64.9686 17.5961 64.3833 17.7852 63.9691 18.1634C63.5729 18.5235 63.3748 19.0188 63.3748 19.6491C63.3748 20.2434 63.5729 20.7296 63.9691 21.1078C64.3833 21.468 64.9686 21.6481 65.7249 21.6481C66.2112 21.6481 66.6434 21.567 67.0216 21.405C67.4178 21.2249 67.742 20.9277 67.9941 20.5135Z" fill="#868686"/>
<path d="M81.5481 24.7816C80.2694 24.7816 79.1529 24.5745 78.1984 24.1603C77.2619 23.7281 76.4785 23.1518 75.8482 22.4315C75.2179 21.7111 74.7497 20.9007 74.4435 20.0003C74.1374 19.0818 73.9843 18.1363 73.9843 17.1639V16.6506C73.9843 15.6421 74.1464 14.6786 74.4705 13.7602C74.7947 12.8237 75.2719 11.9953 75.9023 11.2749C76.5326 10.5546 77.316 9.98729 78.2524 9.57308C79.2069 9.15888 80.2964 8.95177 81.521 8.95177C82.8537 8.95177 84.0333 9.2129 85.0598 9.73516C86.0863 10.2394 86.9057 10.9508 87.518 11.8692C88.1303 12.7877 88.4725 13.8412 88.5445 15.0298H84.3034C84.2314 14.3635 83.9613 13.8052 83.493 13.355C83.0428 12.8867 82.3855 12.6526 81.521 12.6526C80.8007 12.6526 80.1974 12.8327 79.7111 13.1929C79.2429 13.5531 78.8917 14.0483 78.6576 14.6786C78.4235 15.3089 78.3064 16.0563 78.3064 16.9207C78.3064 17.7131 78.4145 18.4335 78.6306 19.0818C78.8467 19.7121 79.1889 20.2074 79.6571 20.5675C80.1434 20.9097 80.7737 21.0808 81.5481 21.0808C82.1243 21.0808 82.6106 20.9818 83.0068 20.7837C83.421 20.5675 83.7451 20.2794 83.9793 19.9192C84.2314 19.541 84.3845 19.1088 84.4385 18.6226H88.6526C88.5986 19.8472 88.2564 20.9277 87.6261 21.8642C86.9958 22.7826 86.1583 23.503 85.1138 24.0253C84.0693 24.5295 82.8807 24.7816 81.5481 24.7816Z" fill="#868686"/>
<path fill-rule="evenodd" clip-rule="evenodd" d="M93.4969 24.1333C94.4693 24.5655 95.5859 24.7816 96.8465 24.7816C98.0891 24.7816 99.1877 24.5655 100.142 24.1333C101.097 23.7011 101.889 23.0978 102.519 22.3234C103.15 21.549 103.573 20.6666 103.789 19.6761H99.818C99.6379 20.1263 99.2957 20.5045 98.7915 20.8107C98.2872 21.1168 97.6389 21.2699 96.8465 21.2699C95.9821 21.2699 95.2797 21.0898 94.7395 20.7296C94.1992 20.3694 93.803 19.8652 93.5509 19.2169C93.4103 18.8453 93.3089 18.4401 93.2467 18.0013H104.059V16.5425C104.059 15.1919 103.771 13.9493 103.195 12.8147C102.618 11.6621 101.781 10.7347 100.682 10.0323C99.6019 9.31195 98.2692 8.95177 96.6844 8.95177C95.4778 8.95177 94.3973 9.16788 93.4428 9.60009C92.5064 10.0143 91.723 10.5816 91.0927 11.3019C90.4623 12.0223 89.9761 12.8417 89.6339 13.7602C89.3098 14.6606 89.1477 15.6061 89.1477 16.5966V17.1368C89.1477 18.0913 89.3098 19.0278 89.6339 19.9462C89.9761 20.8467 90.4623 21.6661 91.0927 22.4045C91.741 23.1248 92.5424 23.7011 93.4969 24.1333ZM93.2798 15.543C93.3473 15.1557 93.4466 14.8046 93.5779 14.4895C93.848 13.8232 94.2442 13.3189 94.7665 12.9768C95.2887 12.6346 95.9281 12.4635 96.6844 12.4635C97.4228 12.4635 98.0351 12.6346 98.5213 12.9768C99.0256 13.3009 99.4038 13.7782 99.6559 14.4085C99.7924 14.7497 99.892 15.1279 99.9546 15.543H93.2798Z" fill="#868686"/>
<path d="M40.0094 24.2684V8.4115H34.4717V4.54858H50.0044V8.4115H44.4396V24.2684H40.0094Z" fill="#868686"/>
<path fill-rule="evenodd" clip-rule="evenodd" d="M14.2873 3.19313C8.12686 3.19313 3.13283 8.18717 3.13283 14.3476C3.13283 20.5081 8.12686 25.5021 14.2873 25.5021C20.4478 25.5021 25.4418 20.5081 25.4418 14.3476C25.4418 8.18717 20.4478 3.19313 14.2873 3.19313ZM0.654053 14.3476C0.654053 6.81817 6.75787 0.714355 14.2873 0.714355C21.8168 0.714355 27.9206 6.81817 27.9206 14.3476C27.9206 21.8771 21.8168 27.9809 14.2873 27.9809C6.75787 27.9809 0.654053 21.8771 0.654053 14.3476Z" fill="#868686"/>
<path fill-rule="evenodd" clip-rule="evenodd" d="M21.0886 9.72554C21.4519 8.58106 20.3666 7.50614 19.2256 7.88051L11.4541 10.4305C11.0043 10.5781 10.6528 10.933 10.5096 11.3843L8.10149 18.9697C7.73816 20.1142 8.82351 21.1891 9.96443 20.8147L17.7359 18.2647C18.1858 18.1171 18.5373 17.7622 18.6805 17.3109L21.0886 9.72554ZM14.5936 16.1181C15.5714 16.1181 16.3641 15.3254 16.3641 14.3476C16.3641 13.3697 15.5714 12.577 14.5936 12.577C13.6158 12.577 12.8231 13.3697 12.8231 14.3476C12.8231 15.3254 13.6158 16.1181 14.5936 16.1181Z" fill="#868686"/>
</svg>