<svg xmlns="http://www.w3.org/2000/svg" width="97" height="41" viewBox="0 0 97 41" fill="none">
<rect width="96.2381" height="40.381" rx="20.1905" fill="black"/>
<g clip-path="url(#clip0_2_22978)">
<path d="M33.7156 14.4825C34.5112 14.5115 35.2894 14.7245 35.989 15.1046C36.6886 15.4848 37.2906 16.0218 37.7479 16.6736C37.6559 16.7381 35.3359 18.0822 35.3635 20.8809C35.4003 24.2228 38.3003 25.3368 38.3279 25.3552C38.3095 25.4289 37.8676 26.9387 36.7997 28.4946C35.879 29.8387 34.9216 31.1828 33.4209 31.2104C31.9479 31.2381 31.46 30.3266 29.7752 30.3266C28.0813 30.3266 27.5473 31.1828 26.1479 31.2381C24.7025 31.2933 23.5886 29.7835 22.6679 28.4393C20.7622 25.6958 19.3168 20.6876 21.2594 17.2996C21.7172 16.4821 22.3796 15.7977 23.1818 15.3135C23.984 14.8293 24.8983 14.5619 25.8349 14.5377C27.2619 14.5101 28.606 15.4952 29.4806 15.4952C30.3552 15.4952 31.994 14.3076 33.7156 14.4825ZM33.734 9.14282C33.8295 10.4238 33.416 11.6908 32.5832 12.6689C32.1935 13.1636 31.6952 13.5621 31.1269 13.8335C30.5586 14.1049 29.9355 14.2419 29.3057 14.2339C29.262 13.6153 29.3429 12.9942 29.5438 12.4075C29.7446 11.8208 30.0613 11.2804 30.4749 10.8184C31.3071 9.86375 32.4734 9.26415 33.734 9.14282Z" fill="white"/>
</g>
<path d="M55.1977 17.9937C55.1977 18.6286 55.0446 19.2238 54.7385 19.7793C54.4437 20.3349 53.9733 20.7827 53.327 21.1228C52.6922 21.4629 51.8872 21.633 50.9122 21.633H48.9226V26.1905H46.5418V14.3205H50.9122C51.8305 14.3205 52.6128 14.4792 53.259 14.7967C53.9052 15.1141 54.3871 15.5506 54.7045 16.1061C55.0333 16.6616 55.1977 17.2908 55.1977 17.9937ZM50.8102 19.7113C51.4677 19.7113 51.9552 19.5639 52.2727 19.2692C52.5901 18.9631 52.7488 18.5379 52.7488 17.9937C52.7488 16.8373 52.1026 16.2592 50.8102 16.2592H48.9226V19.7113H50.8102ZM56.2758 21.4459C56.2758 20.4936 56.4629 19.649 56.837 18.912C57.2225 18.1751 57.7383 17.6083 58.3845 17.2115C59.0421 16.8147 59.7733 16.6163 60.5782 16.6163C61.2811 16.6163 61.8934 16.758 62.4149 17.0414C62.9477 17.3248 63.3729 17.682 63.6903 18.1128V16.7693H66.0881V26.1905H63.6903V24.813C63.3842 25.2552 62.959 25.6236 62.4149 25.9184C61.882 26.2018 61.2641 26.3435 60.5612 26.3435C59.7676 26.3435 59.0421 26.1395 58.3845 25.7313C57.7383 25.3232 57.2225 24.7507 56.837 24.0138C56.4629 23.2655 56.2758 22.4096 56.2758 21.4459ZM63.6903 21.4799C63.6903 20.9017 63.5769 20.4085 63.3502 20.0004C63.1234 19.5809 62.8173 19.2635 62.4319 19.0481C62.0464 18.8213 61.6326 18.708 61.1905 18.708C60.7483 18.708 60.3402 18.8157 59.966 19.0311C59.5919 19.2465 59.2858 19.5639 59.0477 19.9834C58.821 20.3915 58.7076 20.879 58.7076 21.4459C58.7076 22.0128 58.821 22.5116 59.0477 22.9424C59.2858 23.3619 59.5919 23.685 59.966 23.9117C60.3515 24.1385 60.7596 24.2518 61.1905 24.2518C61.6326 24.2518 62.0464 24.1441 62.4319 23.9287C62.8173 23.702 63.1234 23.3845 63.3502 22.9764C63.5769 22.5569 63.6903 22.0581 63.6903 21.4799ZM77.4264 16.7693L71.5934 30.646H69.0596L71.1003 25.9524L67.325 16.7693H69.9949L72.4267 23.3505L74.8925 16.7693H77.4264Z" fill="white"/>
<defs>
<clipPath id="clip0_2_22978">
<rect width="22.0952" height="22.0952" fill="white" transform="translate(18.2857 9.14282)"/>
</clipPath>
</defs>
</svg>