<svg xmlns="http://www.w3.org/2000/svg" width="97" height="41" viewBox="0 0 97 41" fill="none">
<rect width="96.2381" height="40.381" rx="20.1905" fill="black"/>
<g clip-path="url(#clip0_2_23189)">
<path d="M38.5913 20.2528C38.5913 19.578 38.526 18.8814 38.4171 18.2283H28.9915V22.0813H34.39C34.1724 23.3221 33.454 24.4105 32.3874 25.1071L35.6091 27.6104C37.5029 25.8472 38.5913 23.2785 38.5913 20.2528Z" fill="white"/>
<path d="M28.9916 30.0049C31.6908 30.0049 33.9547 29.1124 35.6091 27.5886L32.3874 25.1071C31.4949 25.7166 30.3412 26.0649 28.9916 26.0649C26.3794 26.0649 24.1808 24.3016 23.3754 21.9507L20.0666 24.4976C21.7645 27.8716 25.2039 30.0049 28.9916 30.0049Z" fill="white"/>
<path d="M23.3754 21.9289C22.9618 20.6882 22.9618 19.3385 23.3754 18.0978L20.0666 15.5291C18.6517 18.359 18.6517 21.6895 20.0666 24.4976L23.3754 21.9289Z" fill="white"/>
<path d="M28.9916 13.9835C30.4065 13.9618 31.7996 14.506 32.8227 15.4855L35.6744 12.6122C33.8676 10.9142 31.4731 9.99997 28.9916 10.0217C25.2039 10.0217 21.7645 12.155 20.0666 15.5291L23.3754 18.0977C24.1808 15.725 26.3794 13.9835 28.9916 13.9835Z" fill="white"/>
</g>
<path d="M55.1977 17.9937C55.1977 18.6286 55.0446 19.2238 54.7385 19.7793C54.4437 20.3349 53.9733 20.7827 53.327 21.1228C52.6922 21.4629 51.8872 21.633 50.9122 21.633H48.9226V26.1905H46.5418V14.3205H50.9122C51.8305 14.3205 52.6128 14.4792 53.259 14.7967C53.9052 15.1141 54.3871 15.5506 54.7045 16.1061C55.0333 16.6616 55.1977 17.2908 55.1977 17.9937ZM50.8102 19.7113C51.4677 19.7113 51.9552 19.5639 52.2727 19.2692C52.5901 18.9631 52.7488 18.5379 52.7488 17.9937C52.7488 16.8373 52.1026 16.2592 50.8102 16.2592H48.9226V19.7113H50.8102ZM56.2758 21.4459C56.2758 20.4936 56.4629 19.649 56.837 18.912C57.2225 18.1751 57.7383 17.6083 58.3845 17.2115C59.0421 16.8147 59.7733 16.6163 60.5782 16.6163C61.2811 16.6163 61.8934 16.758 62.4149 17.0414C62.9477 17.3248 63.3729 17.682 63.6903 18.1128V16.7693H66.0881V26.1905H63.6903V24.813C63.3842 25.2552 62.959 25.6236 62.4149 25.9184C61.882 26.2018 61.2641 26.3435 60.5612 26.3435C59.7676 26.3435 59.0421 26.1395 58.3845 25.7313C57.7383 25.3232 57.2225 24.7507 56.837 24.0138C56.4629 23.2655 56.2758 22.4096 56.2758 21.4459ZM63.6903 21.4799C63.6903 20.9017 63.5769 20.4085 63.3502 20.0004C63.1234 19.5809 62.8173 19.2635 62.4319 19.0481C62.0464 18.8213 61.6326 18.708 61.1905 18.708C60.7483 18.708 60.3402 18.8157 59.966 19.0311C59.5919 19.2465 59.2858 19.5639 59.0477 19.9834C58.821 20.3915 58.7076 20.879 58.7076 21.4459C58.7076 22.0128 58.821 22.5116 59.0477 22.9424C59.2858 23.3619 59.5919 23.685 59.966 23.9117C60.3515 24.1385 60.7596 24.2518 61.1905 24.2518C61.6326 24.2518 62.0464 24.1441 62.4319 23.9287C62.8173 23.702 63.1234 23.3845 63.3502 22.9764C63.5769 22.5569 63.6903 22.0581 63.6903 21.4799ZM77.4264 16.7693L71.5934 30.646H69.0596L71.1003 25.9524L67.325 16.7693H69.9949L72.4267 23.3505L74.8925 16.7693H77.4264Z" fill="white"/>
<defs>
<clipPath id="clip0_2_23189">
<rect width="19.5913" height="20.0267" fill="white" transform="translate(19 10)"/>
</clipPath>
</defs>
</svg>